<?xml version="1.0" encoding="utf-8"?>
<svg version="1.1" xmlns:xlink="http://www.w3.org/1999/xlink" width="25px" height="14px" xmlns="http://www.w3.org/2000/svg">
  <g transform="matrix(1 0 0 1 -1230 -529 )">
    <path d="M 24.5361328125 11.3506944444444  C 24.8453776041667 11.6585648148148  25 12.0231481481481  25 12.4444444444444  C 25 12.8657407407407  24.8453776041667 13.2303240740741  24.5361328125 13.5381944444444  C 24.2268880208333 13.8460648148148  23.8606770833333 14  23.4375 14  L 1.5625 14  C 1.13932291666667 14  0.773111979166667 13.8460648148148  0.4638671875 13.5381944444444  C 0.154622395833333 13.2303240740741  0 12.8657407407407  0 12.4444444444444  C 0 12.0231481481481  0.154622395833333 11.6585648148148  0.4638671875 11.3506944444444  L 11.4013671875 0.461805555555556  C 11.7106119791667 0.153935185185183  12.0768229166667 0  12.5 0  C 12.9231770833333 0  13.2893880208333 0.153935185185183  13.5986328125 0.461805555555556  L 24.5361328125 11.3506944444444  Z " fill-rule="nonzero" fill="#00877b" stroke="none" fill-opacity="0.776470588235294" transform="matrix(1 0 0 1 1230 529 )" />
  </g>
</svg>