<?xml version="1.0" encoding="utf-8"?>
<svg version="1.1" xmlns:xlink="http://www.w3.org/1999/xlink" width="14px" height="25px" xmlns="http://www.w3.org/2000/svg">
  <g transform="matrix(1 0 0 1 -1166 -590 )">
    <path d="M 13.5381944444444 0.4638671875  C 13.8460648148148 0.773111979166663  14 1.13932291666666  14 1.5625  L 14 23.4375  C 14 23.8606770833333  13.8460648148148 24.2268880208333  13.5381944444444 24.5361328125  C 13.2303240740741 24.8453776041667  12.8657407407407 25  12.4444444444444 25  C 12.0231481481481 25  11.6585648148148 24.8453776041667  11.3506944444444 24.5361328125  L 0.461805555555556 13.5986328125  C 0.153935185185185 13.2893880208333  0 12.9231770833333  0 12.5  C 0 12.0768229166667  0.153935185185185 11.7106119791667  0.461805555555556 11.4013671875  L 11.3506944444444 0.4638671875  C 11.6585648148148 0.154622395833331  12.0231481481481 0  12.4444444444444 0  C 12.8657407407407 0  13.2303240740741 0.154622395833331  13.5381944444444 0.4638671875  Z " fill-rule="nonzero" fill="#d7d7d7" stroke="none" transform="matrix(1 0 0 1 1166 590 )" />
  </g>
</svg>