<?xml version="1.0" encoding="utf-8"?>
<svg version="1.1" xmlns:xlink="http://www.w3.org/1999/xlink" width="14px" height="25px" xmlns="http://www.w3.org/2000/svg">
  <g transform="matrix(1 0 0 1 -1305 -590 )">
    <path d="M 13.5381944444444 11.4013671875  C 13.8460648148148 11.7106119791667  14 12.0768229166667  14 12.5  C 14 12.9231770833333  13.8460648148148 13.2893880208333  13.5381944444444 13.5986328125  L 2.64930555555556 24.5361328125  C 2.34143518518519 24.8453776041667  1.97685185185185 25  1.55555555555556 25  C 1.13425925925926 25  0.769675925925926 24.8453776041667  0.461805555555556 24.5361328125  C 0.153935185185185 24.2268880208333  0 23.8606770833333  0 23.4375  L 0 1.5625  C 0 1.13932291666666  0.153935185185185 0.773111979166663  0.461805555555556 0.4638671875  C 0.769675925925926 0.154622395833331  1.13425925925926 0  1.55555555555556 0  C 1.97685185185185 0  2.34143518518519 0.154622395833331  2.64930555555556 0.4638671875  L 13.5381944444444 11.4013671875  Z " fill-rule="nonzero" fill="#d7d7d7" stroke="none" transform="matrix(1 0 0 1 1305 590 )" />
  </g>
</svg>