<?xml version="1.0" encoding="utf-8"?>
<svg version="1.1" xmlns:xlink="http://www.w3.org/1999/xlink" width="25px" height="25px" xmlns="http://www.w3.org/2000/svg">
  <g transform="matrix(1 0 0 1 -1231 -590 )">
    <path d="M 24.0071614583333 7.64973958333333  C 24.6690538194444 9.19053819444444  25 10.8072916666667  25 12.5  C 25 14.1927083333333  24.6690538194444 15.8094618055556  24.0071614583333 17.3502604166667  C 23.3452690972222 18.8910590277778  22.4555121527778 20.2202690972222  21.337890625 21.337890625  C 20.2202690972222 22.4555121527778  18.8910590277778 23.3452690972222  17.3502604166667 24.0071614583333  C 15.8094618055556 24.6690538194444  14.1927083333333 25  12.5 25  C 10.6336805555556 25  8.85959201388889 24.6066623263889  7.177734375 23.8199869791667  C 5.49587673611111 23.0333116319444  4.06358506944444 21.923828125  2.880859375 20.4915364583333  C 2.80490451388889 20.3830295138889  2.76963975694444 20.2609592013889  2.77506510416667 20.1253255208333  C 2.78049045138889 19.9896918402778  2.82660590277778 19.8784722222222  2.91341145833333 19.7916666666667  L 5.14322916666667 17.5455729166667  C 5.25173611111111 17.4479166666667  5.38736979166667 17.3990885416667  5.55013020833333 17.3990885416667  C 5.72374131944444 17.4207899305556  5.84852430555556 17.4858940972222  5.92447916666667 17.5944010416667  C 6.71657986111111 18.6252170138889  7.68771701388889 19.4227430555556  8.837890625 19.9869791666667  C 9.98806423611111 20.5512152777778  11.2087673611111 20.8333333333333  12.5 20.8333333333333  C 13.6284722222222 20.8333333333333  14.7054036458333 20.6136067708333  15.7307942708333 20.1741536458333  C 16.7561848958333 19.7347005208333  17.6432291666667 19.140625  18.3919270833333 18.3919270833333  C 19.140625 17.6432291666667  19.7347005208333 16.7561848958333  20.1741536458333 15.7307942708333  C 20.6136067708333 14.7054036458333  20.8333333333333 13.6284722222222  20.8333333333333 12.5  C 20.8333333333333 11.3715277777778  20.6136067708333 10.2945963541667  20.1741536458333 9.26920572916667  C 19.7347005208333 8.24381510416667  19.140625 7.35677083333333  18.3919270833333 6.60807291666667  C 17.6432291666667 5.859375  16.7561848958333 5.26529947916667  15.7307942708333 4.82584635416667  C 14.7054036458333 4.38639322916667  13.6284722222222 4.16666666666667  12.5 4.16666666666667  C 11.4366319444444 4.16666666666667  10.4166666666667 4.35926649305556  9.44010416666667 4.74446614583333  C 8.46354166666667 5.12966579861111  7.59548611111111 5.68033854166667  6.8359375 6.396484375  L 9.06575520833333 8.642578125  C 9.40212673611111 8.96809895833333  9.47808159722222 9.34244791666667  9.29361979166667 9.765625  C 9.10915798611111 10.1996527777778  8.7890625 10.4166666666667  8.33333333333333 10.4166666666667  L 1.04166666666667 10.4166666666667  C 0.759548611111111 10.4166666666667  0.515407986111111 10.3135850694444  0.309244791666667 10.107421875  C 0.103081597222222 9.90125868055556  0 9.65711805555556  0 9.375  L 0 2.08333333333333  C 0 1.62760416666667  0.217013888888889 1.30750868055556  0.651041666666667 1.123046875  C 1.07421875 0.938585069444442  1.44856770833333 1.01453993055556  1.77408854166667 1.35091145833333  L 3.88997395833333 3.45052083333333  C 5.05099826388889 2.35460069444444  6.37749565972222 1.50553385416667  7.86946614583333 0.9033203125  C 9.36143663194445 0.301106770833334  10.9049479166667 0  12.5 0  C 14.1927083333333 0  15.8094618055556 0.330946180555555  17.3502604166667 0.992838541666666  C 18.8910590277778 1.65473090277778  20.2202690972222 2.54448784722222  21.337890625 3.662109375  C 22.4555121527778 4.77973090277778  23.3452690972222 6.10894097222222  24.0071614583333 7.64973958333333  Z " fill-rule="nonzero" fill="#d7d7d7" stroke="none" transform="matrix(1 0 0 1 1231 590 )" />
  </g>
</svg>