<?xml version="1.0" encoding="utf-8"?>
<svg version="1.1" xmlns:xlink="http://www.w3.org/1999/xlink" width="30px" height="30px" xmlns="http://www.w3.org/2000/svg">
  <g transform="matrix(1 0 0 1 -1331 -712 )">
    <path d="M 18.2902644230769 11.7097355769231  C 18.4044471153846 11.8239182692308  18.4615384615385 11.9591346153846  18.4615384615385 12.1153846153846  L 18.4615384615385 13.2692307692308  C 18.4615384615385 13.4254807692308  18.4044471153846 13.5606971153846  18.2902644230769 13.6748798076923  C 18.1760817307692 13.7890625  18.0408653846154 13.8461538461538  17.8846153846154 13.8461538461538  L 13.8461538461538 13.8461538461538  L 13.8461538461538 17.8846153846154  C 13.8461538461538 18.0408653846154  13.7890625 18.1760817307692  13.6748798076923 18.2902644230769  C 13.5606971153846 18.4044471153846  13.4254807692308 18.4615384615385  13.2692307692308 18.4615384615385  L 12.1153846153846 18.4615384615385  C 11.9591346153846 18.4615384615385  11.8239182692308 18.4044471153846  11.7097355769231 18.2902644230769  C 11.5955528846154 18.1760817307692  11.5384615384615 18.0408653846154  11.5384615384615 17.8846153846154  L 11.5384615384615 13.8461538461538  L 7.5 13.8461538461538  C 7.34375 13.8461538461538  7.20853365384615 13.7890625  7.09435096153846 13.6748798076923  C 6.98016826923077 13.5606971153846  6.92307692307692 13.4254807692308  6.92307692307692 13.2692307692308  L 6.92307692307692 12.1153846153846  C 6.92307692307692 11.9591346153846  6.98016826923077 11.8239182692308  7.09435096153846 11.7097355769231  C 7.20853365384615 11.5955528846154  7.34375 11.5384615384615  7.5 11.5384615384615  L 11.5384615384615 11.5384615384615  L 11.5384615384615 7.5  C 11.5384615384615 7.34375  11.5955528846154 7.20853365384615  11.7097355769231 7.09435096153846  C 11.8239182692308 6.98016826923077  11.9591346153846 6.92307692307692  12.1153846153846 6.92307692307692  L 13.2692307692308 6.92307692307692  C 13.4254807692308 6.92307692307692  13.5606971153846 6.98016826923077  13.6748798076923 7.09435096153846  C 13.7890625 7.20853365384615  13.8461538461538 7.34375  13.8461538461538 7.5  L 13.8461538461538 11.5384615384615  L 17.8846153846154 11.5384615384615  C 18.0408653846154 11.5384615384615  18.1760817307692 11.5955528846154  18.2902644230769 11.7097355769231  Z M 18.3984375 18.3984375  C 19.9789663461538 16.8179086538462  20.7692307692308 14.9158653846154  20.7692307692308 12.6923076923077  C 20.7692307692308 10.46875  19.9789663461538 8.56670673076923  18.3984375 6.98617788461538  C 16.8179086538462 5.40564903846154  14.9158653846154 4.61538461538462  12.6923076923077 4.61538461538462  C 10.46875 4.61538461538462  8.56670673076923 5.40564903846154  6.98617788461538 6.98617788461538  C 5.40564903846154 8.56670673076923  4.61538461538462 10.46875  4.61538461538462 12.6923076923077  C 4.61538461538462 14.9158653846154  5.40564903846154 16.8179086538462  6.98617788461538 18.3984375  C 8.56670673076923 19.9789663461538  10.46875 20.7692307692308  12.6923076923077 20.7692307692308  C 14.9158653846154 20.7692307692308  16.8179086538462 19.9789663461538  18.3984375 18.3984375  Z M 29.3329326923077 26.0697115384615  C 29.7776442307692 26.5144230769231  30 27.0552884615385  30 27.6923076923077  C 30 28.3293269230769  29.7746394230769 28.8731971153846  29.3239182692308 29.3239182692308  C 28.8731971153846 29.7746394230769  28.3293269230769 30  27.6923076923077 30  C 27.0432692307692 30  26.5024038461538 29.7716346153846  26.0697115384615 29.3149038461538  L 19.8858173076923 23.1490384615385  C 17.734375 24.6394230769231  15.3365384615385 25.3846153846154  12.6923076923077 25.3846153846154  C 10.9735576923077 25.3846153846154  9.32992788461539 25.0510817307692  7.76141826923077 24.3840144230769  C 6.19290865384615 23.7169471153846  4.84074519230769 22.8155048076923  3.70492788461538 21.6796875  C 2.56911057692308 20.5438701923077  1.66766826923077 19.1917067307692  1.00060096153846 17.6231971153846  C 0.333533653846154 16.0546875  0 14.4110576923077  0 12.6923076923077  C 0 10.9735576923077  0.333533653846154 9.32992788461539  1.00060096153846 7.76141826923077  C 1.66766826923077 6.19290865384615  2.56911057692308 4.84074519230769  3.70492788461538 3.70492788461538  C 4.84074519230769 2.56911057692308  6.19290865384615 1.66766826923077  7.76141826923077 1.00060096153846  C 9.32992788461539 0.333533653846153  10.9735576923077 0  12.6923076923077 0  C 14.4110576923077 0  16.0546875 0.333533653846153  17.6231971153846 1.00060096153846  C 19.1917067307692 1.66766826923077  20.5438701923077 2.56911057692308  21.6796875 3.70492788461538  C 22.8155048076923 4.84074519230769  23.7169471153846 6.19290865384615  24.3840144230769 7.76141826923077  C 25.0510817307692 9.32992788461539  25.3846153846154 10.9735576923077  25.3846153846154 12.6923076923077  C 25.3846153846154 15.3365384615385  24.6394230769231 17.734375  23.1490384615385 19.8858173076923  L 29.3329326923077 26.0697115384615  Z " fill-rule="nonzero" fill="#aaaaaa" stroke="none" transform="matrix(1 0 0 1 1331 712 )" />
  </g>
</svg>