<?xml version="1.0" encoding="utf-8"?>
<svg version="1.1" xmlns:xlink="http://www.w3.org/1999/xlink" width="18px" height="32px" xmlns="http://www.w3.org/2000/svg">
  <g transform="matrix(1 0 0 1 -77 -316 )">
    <path d="M 17.6907216494845 1.92384769539078  C 17.8969072164948 2.1376085504342  18 2.38343353373413  18 2.66132264529058  C 18 2.93921175684703  17.8969072164948 3.18503674014696  17.6907216494845 3.39879759519038  L 5.5360824742268 16  L 17.6907216494845 28.6012024048096  C 17.8969072164948 28.814963259853  18 29.060788243153  18 29.3386773547094  C 18 29.6165664662659  17.8969072164948 29.8623914495658  17.6907216494845 30.0761523046092  L 16.1443298969072 31.6793587174349  C 15.9381443298969 31.8931195724783  15.7010309278351 32  15.4329896907216 32  C 15.1649484536083 32  14.9278350515464 31.8931195724783  14.7216494845361 31.6793587174349  L 0.309278350515464 16.7374749498998  C 0.103092783505155 16.5237140948564  0 16.2778891115564  0 16  C 0 15.7221108884436  0.103092783505155 15.4762859051436  0.309278350515464 15.2625250501002  L 14.7216494845361 0.320641282565131  C 14.9278350515464 0.106880427521709  15.1649484536083 0  15.4329896907216 0  C 15.7010309278351 0  15.9381443298969 0.106880427521709  16.1443298969072 0.320641282565131  L 17.6907216494845 1.92384769539078  Z " fill-rule="nonzero" fill="#f2f2f2" stroke="none" fill-opacity="0.549019607843137" transform="matrix(1 0 0 1 77 316 )" />
  </g>
</svg>