<?xml version="1.0" encoding="utf-8"?>
<svg version="1.1" xmlns:xlink="http://www.w3.org/1999/xlink" width="23px" height="23px" xmlns="http://www.w3.org/2000/svg">
  <g transform="matrix(1 0 0 1 -325 -773 )">
    <path d="M 3.16378348214286 18.9733664772727  C 3.24507068452381 19.0768229166667  3.28571428571429 19.1993371212121  3.28571428571429 19.3409090909091  L 3.28571428571429 22.4772727272727  C 3.28571428571429 22.6188446969697  3.24507068452381 22.7413589015152  3.16378348214286 22.8448153409091  C 3.0824962797619 22.948271780303  2.98623511904762 23  2.875 23  L 0.410714285714286 23  C 0.299479166666667 23  0.203218005952381 22.948271780303  0.121930803571429 22.8448153409091  C 0.0406436011904762 22.7413589015152  0 22.6188446969697  0 22.4772727272727  L 0 19.3409090909091  C 0 19.1993371212121  0.0406436011904762 19.0768229166667  0.121930803571429 18.9733664772727  C 0.203218005952381 18.8699100378788  0.299479166666667 18.8181818181818  0.410714285714286 18.8181818181818  L 2.875 18.8181818181818  C 2.98623511904762 18.8181818181818  3.0824962797619 18.8699100378788  3.16378348214286 18.9733664772727  Z M 3.16378348214286 12.7006392045455  C 3.24507068452381 12.8040956439394  3.28571428571429 12.9266098484848  3.28571428571429 13.0681818181818  L 3.28571428571429 16.2045454545455  C 3.28571428571429 16.3461174242424  3.24507068452381 16.4686316287879  3.16378348214286 16.5720880681818  C 3.0824962797619 16.6755445075758  2.98623511904762 16.7272727272727  2.875 16.7272727272727  L 0.410714285714286 16.7272727272727  C 0.299479166666667 16.7272727272727  0.203218005952381 16.6755445075758  0.121930803571429 16.5720880681818  C 0.0406436011904762 16.4686316287879  0 16.3461174242424  0 16.2045454545455  L 0 13.0681818181818  C 0 12.9266098484848  0.0406436011904762 12.8040956439394  0.121930803571429 12.7006392045455  C 0.203218005952381 12.5971827651515  0.299479166666667 12.5454545454545  0.410714285714286 12.5454545454545  L 2.875 12.5454545454545  C 2.98623511904762 12.5454545454545  3.0824962797619 12.5971827651515  3.16378348214286 12.7006392045455  Z M 3.16378348214286 6.42791193181818  C 3.24507068452381 6.53136837121212  3.28571428571429 6.65388257575757  3.28571428571429 6.79545454545455  L 3.28571428571429 9.93181818181818  C 3.28571428571429 10.0733901515152  3.24507068452381 10.1959043560606  3.16378348214286 10.2993607954545  C 3.0824962797619 10.4028172348485  2.98623511904762 10.4545454545455  2.875 10.4545454545455  L 0.410714285714286 10.4545454545455  C 0.299479166666667 10.4545454545455  0.203218005952381 10.4028172348485  0.121930803571429 10.2993607954545  C 0.0406436011904762 10.1959043560606  0 10.0733901515152  0 9.93181818181818  L 0 6.79545454545455  C 0 6.65388257575757  0.0406436011904762 6.53136837121212  0.121930803571429 6.42791193181818  C 0.203218005952381 6.32445549242424  0.299479166666667 6.27272727272727  0.410714285714286 6.27272727272727  L 2.875 6.27272727272727  C 2.98623511904762 6.27272727272727  3.0824962797619 6.32445549242424  3.16378348214286 6.42791193181818  Z M 22.8780691964286 18.9733664772727  C 22.9593563988095 19.0768229166667  23 19.1993371212121  23 19.3409090909091  L 23 22.4772727272727  C 23 22.6188446969697  22.9593563988095 22.7413589015152  22.8780691964286 22.8448153409091  C 22.7967819940476 22.948271780303  22.7005208333333 23  22.5892857142857 23  L 5.33928571428571 23  C 5.2280505952381 23  5.13178943452381 22.948271780303  5.05050223214286 22.8448153409091  C 4.9692150297619 22.7413589015152  4.92857142857143 22.6188446969697  4.92857142857143 22.4772727272727  L 4.92857142857143 19.3409090909091  C 4.92857142857143 19.1993371212121  4.9692150297619 19.0768229166667  5.05050223214286 18.9733664772727  C 5.13178943452381 18.8699100378788  5.2280505952381 18.8181818181818  5.33928571428571 18.8181818181818  L 22.5892857142857 18.8181818181818  C 22.7005208333333 18.8181818181818  22.7967819940476 18.8699100378788  22.8780691964286 18.9733664772727  Z M 3.16378348214286 0.155184659090908  C 3.24507068452381 0.258641098484848  3.28571428571429 0.381155303030301  3.28571428571429 0.522727272727272  L 3.28571428571429 3.65909090909091  C 3.28571428571429 3.80066287878788  3.24507068452381 3.92317708333333  3.16378348214286 4.02663352272727  C 3.0824962797619 4.13008996212121  2.98623511904762 4.18181818181818  2.875 4.18181818181818  L 0.410714285714286 4.18181818181818  C 0.299479166666667 4.18181818181818  0.203218005952381 4.13008996212121  0.121930803571429 4.02663352272727  C 0.0406436011904762 3.92317708333333  0 3.80066287878788  0 3.65909090909091  L 0 0.522727272727272  C 0 0.381155303030301  0.0406436011904762 0.258641098484848  0.121930803571429 0.155184659090908  C 0.203218005952381 0.0517282196969661  0.299479166666667 0  0.410714285714286 0  L 2.875 0  C 2.98623511904762 0  3.0824962797619 0.0517282196969661  3.16378348214286 0.155184659090908  Z M 22.8780691964286 12.7006392045455  C 22.9593563988095 12.8040956439394  23 12.9266098484848  23 13.0681818181818  L 23 16.2045454545455  C 23 16.3461174242424  22.9593563988095 16.4686316287879  22.8780691964286 16.5720880681818  C 22.7967819940476 16.6755445075758  22.7005208333333 16.7272727272727  22.5892857142857 16.7272727272727  L 5.33928571428571 16.7272727272727  C 5.2280505952381 16.7272727272727  5.13178943452381 16.6755445075758  5.05050223214286 16.5720880681818  C 4.9692150297619 16.4686316287879  4.92857142857143 16.3461174242424  4.92857142857143 16.2045454545455  L 4.92857142857143 13.0681818181818  C 4.92857142857143 12.9266098484848  4.9692150297619 12.8040956439394  5.05050223214286 12.7006392045455  C 5.13178943452381 12.5971827651515  5.2280505952381 12.5454545454545  5.33928571428571 12.5454545454545  L 22.5892857142857 12.5454545454545  C 22.7005208333333 12.5454545454545  22.7967819940476 12.5971827651515  22.8780691964286 12.7006392045455  Z M 22.8780691964286 6.42791193181818  C 22.9593563988095 6.53136837121212  23 6.65388257575757  23 6.79545454545455  L 23 9.93181818181818  C 23 10.0733901515152  22.9593563988095 10.1959043560606  22.8780691964286 10.2993607954545  C 22.7967819940476 10.4028172348485  22.7005208333333 10.4545454545455  22.5892857142857 10.4545454545455  L 5.33928571428571 10.4545454545455  C 5.2280505952381 10.4545454545455  5.13178943452381 10.4028172348485  5.05050223214286 10.2993607954545  C 4.9692150297619 10.1959043560606  4.92857142857143 10.0733901515152  4.92857142857143 9.93181818181818  L 4.92857142857143 6.79545454545455  C 4.92857142857143 6.65388257575757  4.9692150297619 6.53136837121212  5.05050223214286 6.42791193181818  C 5.13178943452381 6.32445549242424  5.2280505952381 6.27272727272727  5.33928571428571 6.27272727272727  L 22.5892857142857 6.27272727272727  C 22.7005208333333 6.27272727272727  22.7967819940476 6.32445549242424  22.8780691964286 6.42791193181818  Z M 22.8780691964286 0.155184659090908  C 22.9593563988095 0.258641098484848  23 0.381155303030301  23 0.522727272727272  L 23 3.65909090909091  C 23 3.80066287878788  22.9593563988095 3.92317708333333  22.8780691964286 4.02663352272727  C 22.7967819940476 4.13008996212121  22.7005208333333 4.18181818181818  22.5892857142857 4.18181818181818  L 5.33928571428571 4.18181818181818  C 5.2280505952381 4.18181818181818  5.13178943452381 4.13008996212121  5.05050223214286 4.02663352272727  C 4.9692150297619 3.92317708333333  4.92857142857143 3.80066287878788  4.92857142857143 3.65909090909091  L 4.92857142857143 0.522727272727272  C 4.92857142857143 0.381155303030301  4.9692150297619 0.258641098484848  5.05050223214286 0.155184659090908  C 5.13178943452381 0.0517282196969661  5.2280505952381 0  5.33928571428571 0  L 22.5892857142857 0  C 22.7005208333333 0  22.7967819940476 0.0517282196969661  22.8780691964286 0.155184659090908  Z " fill-rule="nonzero" fill="#ffffff" stroke="none" transform="matrix(1 0 0 1 325 773 )" />
  </g>
</svg>