<?xml version="1.0" encoding="utf-8"?>
<svg version="1.1" xmlns:xlink="http://www.w3.org/1999/xlink" width="13px" height="23px" xmlns="http://www.w3.org/2000/svg">
  <g transform="matrix(1 0 0 1 -578 -214 )">
    <path d="M 12.7766323024055 1.38276553106212  C 12.9255441008018 1.53640614562458  13 1.71309285237141  13 1.91282565130261  C 13 2.1125584502338  12.9255441008018 2.28924515698063  12.7766323024055 2.44288577154309  L 3.99828178694158 11.5  L 12.7766323024055 20.5571142284569  C 12.9255441008018 20.7107548430194  13 20.8874415497662  13 21.0871743486974  C 13 21.2869071476286  12.9255441008018 21.4635938543754  12.7766323024055 21.6172344689379  L 11.659793814433 22.7695390781563  C 11.5108820160367 22.9231796927188  11.3396334478809 23  11.1460481099656 23  C 10.9524627720504 23  10.7812142038946 22.9231796927188  10.6323024054983 22.7695390781563  L 0.223367697594502 12.0300601202405  C 0.0744558991981673 11.876419505678  0 11.6997327989312  0 11.5  C 0 11.3002672010688  0.0744558991981673 11.123580494322  0.223367697594502 10.9699398797595  L 10.6323024054983 0.230460921843688  C 10.7812142038946 0.0768203072812284  10.9524627720504 0  11.1460481099656 0  C 11.3396334478809 0  11.5108820160367 0.0768203072812284  11.659793814433 0.230460921843688  L 12.7766323024055 1.38276553106212  Z " fill-rule="nonzero" fill="#7f7f7f" stroke="none" transform="matrix(1 0 0 1 578 214 )" />
  </g>
</svg>