<?xml version="1.0" encoding="utf-8"?>
<svg version="1.1" xmlns:xlink="http://www.w3.org/1999/xlink" width="10px" height="15px" preserveAspectRatio="xMidYMin meet" viewBox="649 2340  8 15" xmlns="http://www.w3.org/2000/svg">
  <path d="M 653.5 2341  L 653.5 2345  A 5 5 0 0 0 658.5 2350.5 L 715 2350.5  A 5 5 0 0 0 720.5 2345.5 L 720.5 2230  " stroke-width="1" stroke="#009999" fill="none" />
  <path d="M 653.5 2340  A 3 3 0 0 0 650.5 2343 A 3 3 0 0 0 653.5 2346 A 3 3 0 0 0 656.5 2343 A 3 3 0 0 0 653.5 2340 Z M 726.8 2231  L 720.5 2225  L 714.2 2231  L 726.8 2231  Z " fill-rule="nonzero" fill="#009999" stroke="none" />
</svg>