<?xml version="1.0" encoding="utf-8"?>
<svg version="1.1" xmlns:xlink="http://www.w3.org/1999/xlink" width="45px" height="10px" preserveAspectRatio="xMinYMid meet" viewBox="701 3154  45 8" xmlns="http://www.w3.org/2000/svg">
  <path d="M 617 2601.5  L 701 2601.5  A 5 5 0 0 1 706.5 2606.5 L 706.5 3153  A 5 5 0 0 0 711.5 3158.5 L 741 3158.5  " stroke-width="1" stroke="#009999" fill="none" />
  <path d="M 619 2598.5  A 3 3 0 0 0 616 2601.5 A 3 3 0 0 0 619 2604.5 A 3 3 0 0 0 622 2601.5 A 3 3 0 0 0 619 2598.5 Z M 740 3164.8  L 746 3158.5  L 740 3152.2  L 740 3164.8  Z " fill-rule="nonzero" fill="#009999" stroke="none" />
</svg>