<?xml version="1.0" encoding="utf-8"?>
<svg version="1.1" xmlns:xlink="http://www.w3.org/1999/xlink" width="13px" height="13px" xmlns="http://www.w3.org/2000/svg">
  <g transform="matrix(1 0 0 1 -816 -2510 )">
    <path d="M 2.37946428571429 9.97159090909091  C 2.65029761904762 10.3162878787879  2.78571428571429 10.7348484848485  2.78571428571429 11.2272727272727  C 2.78571428571429 11.719696969697  2.65029761904762 12.1382575757576  2.37946428571429 12.4829545454545  C 2.10863095238095 12.8276515151515  1.7797619047619 13  1.39285714285714 13  C 1.00595238095238 13  0.677083333333333 12.8276515151515  0.40625 12.4829545454545  C 0.135416666666667 12.1382575757576  0 11.719696969697  0 11.2272727272727  C 0 10.7348484848485  0.135416666666667 10.3162878787879  0.40625 9.97159090909091  C 0.677083333333333 9.62689393939394  1.00595238095238 9.45454545454546  1.39285714285714 9.45454545454546  C 1.7797619047619 9.45454545454546  2.10863095238095 9.62689393939394  2.37946428571429 9.97159090909091  Z M 2.37946428571429 5.24431818181818  C 2.65029761904762 5.58901515151515  2.78571428571429 6.00757575757576  2.78571428571429 6.5  C 2.78571428571429 6.99242424242424  2.65029761904762 7.41098484848485  2.37946428571429 7.75568181818182  C 2.10863095238095 8.10037878787879  1.7797619047619 8.27272727272727  1.39285714285714 8.27272727272727  C 1.00595238095238 8.27272727272727  0.677083333333333 8.10037878787879  0.40625 7.75568181818182  C 0.135416666666667 7.41098484848485  0 6.99242424242424  0 6.5  C 0 6.00757575757576  0.135416666666667 5.58901515151515  0.40625 5.24431818181818  C 0.677083333333333 4.89962121212121  1.00595238095238 4.72727272727273  1.39285714285714 4.72727272727273  C 1.7797619047619 4.72727272727273  2.10863095238095 4.89962121212121  2.37946428571429 5.24431818181818  Z M 12.9310825892857 10.1331676136364  C 12.9770275297619 10.1916429924242  13 10.2608901515152  13 10.3409090909091  L 13 12.1136363636364  C 13 12.1936553030303  12.9770275297619 12.2629024621212  12.9310825892857 12.3213778409091  C 12.8851376488095 12.379853219697  12.8307291666667 12.4090909090909  12.7678571428571 12.4090909090909  L 3.94642857142857 12.4090909090909  C 3.88355654761905 12.4090909090909  3.82914806547619 12.379853219697  3.783203125 12.3213778409091  C 3.73725818452381 12.2629024621212  3.71428571428571 12.1936553030303  3.71428571428571 12.1136363636364  L 3.71428571428571 10.3409090909091  C 3.71428571428571 10.2608901515152  3.73725818452381 10.1916429924242  3.783203125 10.1331676136364  C 3.82914806547619 10.0746922348485  3.88355654761905 10.0454545454545  3.94642857142857 10.0454545454545  L 12.7678571428571 10.0454545454545  C 12.8307291666667 10.0454545454545  12.8851376488095 10.0746922348485  12.9310825892857 10.1331676136364  Z M 2.37946428571429 0.517045454545455  C 2.65029761904762 0.861742424242424  2.78571428571429 1.28030303030303  2.78571428571429 1.77272727272727  C 2.78571428571429 2.26515151515151  2.65029761904762 2.68371212121212  2.37946428571429 3.02840909090909  C 2.10863095238095 3.37310606060606  1.7797619047619 3.54545454545455  1.39285714285714 3.54545454545455  C 1.00595238095238 3.54545454545455  0.677083333333333 3.37310606060606  0.40625 3.02840909090909  C 0.135416666666667 2.68371212121212  0 2.26515151515151  0 1.77272727272727  C 0 1.28030303030303  0.135416666666667 0.861742424242424  0.40625 0.517045454545455  C 0.677083333333333 0.172348484848484  1.00595238095238 0  1.39285714285714 0  C 1.7797619047619 0  2.10863095238095 0.172348484848484  2.37946428571429 0.517045454545455  Z M 12.9310825892857 5.40589488636364  C 12.9770275297619 5.46437026515151  13 5.53361742424242  13 5.61363636363636  L 13 7.38636363636364  C 13 7.46638257575757  12.9770275297619 7.53562973484848  12.9310825892857 7.59410511363636  C 12.8851376488095 7.65258049242424  12.8307291666667 7.68181818181818  12.7678571428571 7.68181818181818  L 3.94642857142857 7.68181818181818  C 3.88355654761905 7.68181818181818  3.82914806547619 7.65258049242424  3.783203125 7.59410511363636  C 3.73725818452381 7.53562973484848  3.71428571428571 7.46638257575757  3.71428571428571 7.38636363636364  L 3.71428571428571 5.61363636363636  C 3.71428571428571 5.53361742424242  3.73725818452381 5.46437026515151  3.783203125 5.40589488636364  C 3.82914806547619 5.34741950757576  3.88355654761905 5.31818181818182  3.94642857142857 5.31818181818182  L 12.7678571428571 5.31818181818182  C 12.8307291666667 5.31818181818182  12.8851376488095 5.34741950757576  12.9310825892857 5.40589488636364  Z M 12.9310825892857 0.67862215909091  C 12.9770275297619 0.737097537878787  13 0.806344696969697  13 0.886363636363637  L 13 2.65909090909091  C 13 2.73910984848485  12.9770275297619 2.80835700757576  12.9310825892857 2.86683238636364  C 12.8851376488095 2.92530776515151  12.8307291666667 2.95454545454546  12.7678571428571 2.95454545454546  L 3.94642857142857 2.95454545454546  C 3.88355654761905 2.95454545454546  3.82914806547619 2.92530776515151  3.783203125 2.86683238636364  C 3.73725818452381 2.80835700757576  3.71428571428571 2.73910984848485  3.71428571428571 2.65909090909091  L 3.71428571428571 0.886363636363637  C 3.71428571428571 0.806344696969697  3.73725818452381 0.737097537878787  3.783203125 0.67862215909091  C 3.82914806547619 0.620146780303029  3.88355654761905 0.59090909090909  3.94642857142857 0.59090909090909  L 12.7678571428571 0.59090909090909  C 12.8307291666667 0.59090909090909  12.8851376488095 0.620146780303029  12.9310825892857 0.67862215909091  Z " fill-rule="nonzero" fill="#000000" stroke="none" transform="matrix(1 0 0 1 816 2510 )" />
  </g>
</svg>