<?xml version="1.0" encoding="utf-8"?>
<svg version="1.1" xmlns:xlink="http://www.w3.org/1999/xlink" width="10px" height="29px" preserveAspectRatio="xMidYMin meet" viewBox="3243 1413  8 29" xmlns="http://www.w3.org/2000/svg">
  <path d="M 3247.5 1441  L 3247.5 1423  A 5 5 0 0 0 3242.5 1418.5 L 2860 1418.5  A 5 5 0 0 1 2855.5 1413.5 L 2855.5 1400  " stroke-width="1" stroke="#009999" fill="none" />
  <path d="M 3247.5 1436  A 3 3 0 0 0 3244.5 1439 A 3 3 0 0 0 3247.5 1442 A 3 3 0 0 0 3250.5 1439 A 3 3 0 0 0 3247.5 1436 Z M 2861.8 1401  L 2855.5 1395  L 2849.2 1401  L 2861.8 1401  Z " fill-rule="nonzero" fill="#009999" stroke="none" />
</svg>