<?xml version="1.0" encoding="utf-8"?>
<svg version="1.1" xmlns:xlink="http://www.w3.org/1999/xlink" width="22px" height="10px" preserveAspectRatio="xMinYMid meet" viewBox="813 1471  22 8" xmlns="http://www.w3.org/2000/svg">
  <path d="M 801 1269.5  L 825 1269.5  A 5 5 0 0 1 830.5 1274.5 L 830.5 1470  A 5 5 0 0 1 825.5 1475.5 L 818 1475.5  " stroke-width="1" stroke="#009999" fill="none" />
  <path d="M 803 1266.5  A 3 3 0 0 0 800 1269.5 A 3 3 0 0 0 803 1272.5 A 3 3 0 0 0 806 1269.5 A 3 3 0 0 0 803 1266.5 Z M 819 1469.2  L 813 1475.5  L 819 1481.8  L 819 1469.2  Z " fill-rule="nonzero" fill="#009999" stroke="none" />
</svg>