<?xml version="1.0" encoding="utf-8"?>
<svg version="1.1" xmlns:xlink="http://www.w3.org/1999/xlink" width="18px" height="18px" preserveAspectRatio="xMinYMid meet" viewBox="1004 3030  18 16" xmlns="http://www.w3.org/2000/svg">
  <path d="M 1011.45885107721 3038.25516512378  A 2 2 0 0 0 1012.5 3036.5 L 1012.5 2998  A 5 5 0 0 1 1017.5 2993.5 L 1045 2993.5  " stroke-width="1" stroke="#009999" fill="none" />
  <path d="M 1012.49498997321 3033.64147440334  A 3 3 0 0 0 1009.49498997321 3036.64147440334 A 3 3 0 0 0 1012.49498997321 3039.64147440334 A 3 3 0 0 0 1015.49498997321 3036.64147440334 A 3 3 0 0 0 1012.49498997321 3033.64147440334 Z M 1044 2999.8  L 1050 2993.5  L 1044 2987.2  L 1044 2999.8  Z " fill-rule="nonzero" fill="#009999" stroke="none" />
</svg>