<?xml version="1.0" encoding="utf-8"?>
<svg version="1.1" xmlns:xlink="http://www.w3.org/1999/xlink" width="10px" height="10px" preserveAspectRatio="xMinYMid meet" viewBox="1078 4260  10 8" xmlns="http://www.w3.org/2000/svg">
  <path d="M 1083.59966711079 4268.50665334602  A 5 5 0 0 1 1088.5 4264.5 L 1180 4264.5  A 5 5 0 0 1 1185.5 4269.5 L 1185.5 4477  " stroke-width="1" stroke="#009999" fill="none" />
  <path d="M 1084.37332192545 4263.67678763303  A 3 3 0 0 0 1081.37332192545 4266.67678763303 A 3 3 0 0 0 1084.37332192545 4269.67678763303 A 3 3 0 0 0 1087.37332192545 4266.67678763303 A 3 3 0 0 0 1084.37332192545 4263.67678763303 Z M 1179.2 4476  L 1185.5 4482  L 1191.8 4476  L 1179.2 4476  Z " fill-rule="nonzero" fill="#009999" stroke="none" />
</svg>